<?xml version="1.0" standalone="no"?>
<!DOCTYPE svg PUBLIC "-//W3C//DTD SVG 20010904//EN"
 "http://www.w3.org/TR/2001/REC-SVG-20010904/DTD/svg10.dtd">
<svg version="1.0" xmlns="http://www.w3.org/2000/svg"
 width="1364.000000pt" height="1364.000000pt" viewBox="0 0 1364.000000 1364.000000"
 preserveAspectRatio="xMidYMid meet">
<metadata>
Created by potrace 1.14, written by Peter Selinger 2001-2017
</metadata>
<g transform="translate(0.000000,1364.000000) scale(0.100000,-0.100000)"
fill="#000000" stroke="none">
<path d="M2010 9274 c-151 -84 -277 -154 -281 -154 -4 0 -9 -3 -11 -7 -1 -5
-21 -17 -43 -29 -22 -12 -116 -65 -210 -119 -93 -54 -185 -106 -202 -117 -71
-40 -100 -56 -151 -87 -29 -17 -55 -31 -57 -31 -3 0 -29 -16 -59 -35 -30 -19
-57 -35 -59 -35 -3 0 -66 -36 -142 -80 -76 -44 -141 -80 -146 -80 -5 0 -9 -4
-9 -10 0 -5 -6 -10 -12 -11 -7 0 -150 -80 -318 -177 l-305 -177 -3 -1305 -3
-1305 187 -105 c103 -58 210 -118 238 -134 28 -15 77 -43 109 -62 32 -19 60
-34 62 -34 2 0 48 -26 102 -58 54 -32 105 -61 113 -65 8 -4 40 -22 71 -40 30
-17 95 -54 143 -82 97 -55 129 -74 226 -130 36 -20 85 -49 110 -63 25 -13 50
-28 55 -32 8 -6 358 -208 450 -260 17 -9 87 -50 155 -90 69 -40 150 -86 180
-103 30 -17 57 -34 58 -39 2 -4 8 -8 14 -8 9 0 301 169 390 226 21 13 42 24
48 24 5 0 10 5 10 10 0 6 4 10 9 10 5 0 54 27 109 59 55 33 142 84 194 113 51
29 102 58 113 65 11 7 26 15 34 19 7 4 51 29 98 56 46 26 88 48 93 48 6 0 10
5 10 10 0 6 4 10 9 10 5 0 62 31 128 70 65 38 124 70 131 70 6 0 12 5 12 10 0
6 4 10 10 10 5 0 39 18 75 40 36 22 67 40 69 40 3 0 46 24 98 53 51 30 127 72
168 94 153 82 176 97 243 146 101 77 150 156 176 288 5 30 13 70 17 89 4 19 9
558 11 1197 l4 1161 -68 40 c-37 22 -84 49 -103 59 -19 11 -100 57 -180 103
-320 183 -356 204 -390 223 -19 11 -82 46 -139 79 -57 33 -129 74 -160 90 -31
17 -63 37 -72 44 -9 8 -19 11 -22 7 -4 -3 -7 -1 -7 5 0 7 -4 12 -9 12 -5 0
-48 23 -96 50 -48 28 -91 50 -96 50 -5 0 -9 4 -9 9 0 5 -8 11 -17 14 -10 4
-38 18 -63 33 -53 32 -99 58 -160 92 -25 13 -52 31 -61 38 -8 8 -19 14 -23 14
-9 0 -329 189 -431 255 -44 29 -94 59 -111 68 l-31 16 -273 -155z m152 -200
c13 -49 20 -242 22 -602 1 -297 0 -344 -14 -356 -16 -13 -139 -86 -146 -86 -2
0 -27 -15 -56 -33 -29 -18 -64 -38 -78 -45 -14 -7 -43 -23 -65 -36 -38 -22
-295 -169 -360 -206 -276 -157 -487 -277 -519 -296 -23 -14 -61 -34 -86 -47
-25 -12 -49 -26 -55 -30 -11 -10 -115 -68 -210 -118 -33 -17 -68 -38 -77 -47
-10 -8 -18 -12 -18 -8 0 3 -17 -5 -38 -18 -47 -30 -181 -97 -185 -94 -2 2 -11
-3 -19 -10 -13 -11 -17 -9 -22 11 -12 48 -19 229 -19 492 -1 373 8 455 52 511
12 15 21 24 21 20 0 -7 149 71 215 112 22 14 41 25 43 24 1 -1 12 4 25 12 12
7 69 40 127 72 58 32 119 67 135 76 17 10 41 24 55 30 14 7 27 15 30 18 3 3
16 11 30 19 168 97 236 137 238 143 2 5 8 8 14 8 6 0 47 22 92 49 44 27 99 59
121 72 22 12 56 32 77 43 20 12 83 48 140 81 56 33 107 62 113 64 5 2 12 7 15
10 3 4 16 12 30 19 14 6 52 28 85 47 94 55 258 136 269 132 5 -2 13 -17 18
-33z m395 -28 c174 -95 274 -151 508 -286 127 -73 255 -146 285 -162 30 -17
62 -36 70 -42 8 -6 35 -22 60 -35 25 -13 52 -29 60 -35 8 -6 26 -17 39 -24 13
-8 38 -22 55 -31 17 -10 141 -82 276 -161 135 -78 259 -150 275 -160 17 -9 54
-31 83 -49 29 -17 57 -31 62 -31 6 0 10 -10 11 -22 1 -13 2 -48 4 -78 1 -30 5
-162 9 -293 4 -131 7 -242 7 -245 1 -4 1 -11 0 -16 0 -4 -3 -67 -5 -140 -2
-90 -8 -143 -19 -168 l-16 -37 -48 21 c-26 11 -52 24 -58 28 -5 4 -59 33 -120
65 -60 32 -202 110 -315 173 -113 64 -221 124 -240 134 -40 21 -23 11 -435
251 -170 99 -348 203 -395 231 -47 28 -87 51 -90 51 -3 0 -23 12 -45 26 -22
14 -47 29 -55 32 -13 6 -40 23 -109 66 -12 7 -14 38 -13 157 1 82 2 156 2 164
-4 215 4 533 15 595 11 63 16 75 30 75 8 0 58 -24 112 -54z m-164 -1175 c108
-54 212 -109 341 -182 120 -68 147 -83 206 -116 30 -17 132 -75 225 -128 94
-53 190 -109 215 -123 170 -95 207 -117 223 -130 9 -8 17 -12 17 -8 0 4 13 -2
29 -13 16 -12 34 -21 40 -21 6 0 11 -4 11 -10 0 -5 4 -10 10 -10 8 0 122 -63
180 -100 25 -15 162 -95 199 -116 65 -36 121 -82 121 -99 0 -12 -21 -27 -105
-75 -16 -9 -60 -36 -98 -58 -37 -23 -69 -42 -71 -42 -3 0 -40 -22 -84 -49 -44
-27 -104 -62 -133 -79 -30 -16 -202 -115 -384 -219 -560 -322 -659 -379 -675
-387 -8 -3 -96 -53 -194 -110 l-180 -104 -98 50 c-54 27 -100 54 -104 59 -3 5
-12 9 -20 9 -15 0 -164 94 -202 128 -20 18 -21 23 -11 41 7 11 25 26 39 33 14
7 27 16 30 19 14 16 337 209 351 209 5 0 9 3 9 8 0 4 15 13 33 21 17 8 34 18
37 21 3 4 23 17 45 29 22 12 47 26 55 31 8 5 65 39 125 76 103 63 304 193 315
204 3 3 23 18 45 34 63 45 144 133 151 163 6 23 0 33 -46 76 -29 27 -99 79
-155 117 -100 67 -400 250 -411 250 -3 0 -30 16 -60 35 -30 19 -56 35 -59 35
-4 0 -243 141 -297 176 -101 64 -123 79 -128 84 -3 3 -31 22 -64 43 -39 26
-55 42 -48 49 5 5 99 61 208 124 171 99 204 114 232 110 18 -3 79 -28 135 -55z
m-627 -433 c389 -194 1038 -573 1051 -615 2 -6 -29 -34 -69 -61 -90 -60 -328
-212 -334 -212 -2 0 -28 -16 -58 -35 -30 -19 -57 -35 -59 -35 -3 0 -34 -17
-69 -39 -35 -21 -102 -58 -148 -81 -93 -47 -279 -156 -352 -207 -26 -18 -52
-33 -58 -33 -5 0 -10 -3 -10 -7 0 -5 -14 -16 -31 -26 l-31 -17 -132 76 c-72
42 -145 87 -163 100 -17 13 -35 24 -40 24 -11 0 -66 50 -85 79 -30 43 -1 83
110 155 61 40 95 59 262 149 85 46 233 137 250 154 13 13 12 17 -14 37 -29 24
-142 92 -236 143 -208 113 -320 182 -363 225 -30 30 -32 71 -5 100 67 70 357
204 424 194 17 -2 89 -33 160 -68z m-771 -354 c122 -62 228 -124 233 -136 2
-4 8 -8 14 -8 12 0 90 -60 126 -96 l22 -23 -28 -28 c-38 -37 -58 -52 -128
-100 -62 -42 -311 -189 -338 -199 -16 -6 -270 134 -370 204 -55 38 -126 105
-126 119 0 10 43 57 88 96 44 38 253 177 265 177 6 0 18 6 26 14 17 15 67 34
91 35 8 0 65 -24 125 -55z m-595 -556 c58 -31 123 -66 145 -78 22 -13 59 -33
83 -46 23 -13 61 -35 85 -48 23 -13 58 -32 77 -43 19 -11 55 -31 80 -45 25
-14 61 -35 80 -47 19 -11 41 -24 49 -28 8 -4 105 -58 215 -121 111 -63 230
-130 266 -150 36 -19 94 -53 129 -74 34 -21 65 -38 67 -38 3 0 21 -11 42 -23
20 -13 64 -39 97 -57 148 -82 360 -204 365 -211 7 -10 4 -699 -4 -809 -8 -113
-16 -169 -27 -176 -12 -7 -190 87 -529 281 -151 87 -291 166 -310 177 -107 61
-234 135 -258 150 -15 10 -40 24 -57 32 -16 9 -37 20 -45 25 -25 16 -362 210
-550 316 -96 55 -178 103 -181 108 -8 11 -3 760 5 857 12 128 15 137 49 116
12 -7 69 -38 127 -68z m3938 45 c16 -39 23 -118 23 -231 0 -121 -12 -548 -20
-707 -1 -13 -14 -26 -38 -38 -21 -9 -45 -22 -53 -27 -23 -15 -191 -110 -195
-110 -2 0 -38 -20 -79 -45 -42 -25 -78 -45 -80 -45 -3 0 -37 -19 -78 -43 -40
-24 -98 -57 -128 -74 -30 -17 -143 -81 -250 -143 -107 -62 -215 -124 -239
-138 -25 -13 -65 -37 -90 -52 -26 -14 -53 -29 -61 -33 -8 -4 -55 -32 -105 -62
-49 -29 -144 -84 -210 -122 -66 -37 -128 -72 -137 -78 -35 -21 -157 -85 -162
-85 -12 0 -26 107 -32 255 -6 151 -11 706 -6 722 2 7 16 19 30 26 15 8 83 47
152 87 69 39 143 82 165 95 22 12 112 64 200 115 88 52 171 100 185 107 14 8
43 25 65 38 22 14 72 43 110 65 39 22 77 45 85 50 72 45 170 100 179 100 6 0
11 4 11 9 0 5 8 11 18 14 19 7 76 40 169 98 34 21 67 39 72 39 5 0 11 4 13 8
2 4 35 25 73 47 39 21 86 47 105 58 40 23 217 111 240 120 36 13 58 7 68 -20z"/>
<path d="M7287 8834 c-1 -1 -36 -4 -77 -7 -239 -19 -332 -72 -375 -213 -9 -32
-13 -95 -11 -212 2 -187 13 -226 78 -276 48 -36 167 -72 303 -91 11 -2 34 -6
50 -8 17 -3 50 -8 75 -12 25 -4 57 -9 72 -11 199 -31 200 -32 250 -58 46 -24
69 -56 99 -138 36 -99 22 -162 -52 -239 -82 -86 -153 -104 -414 -108 -280 -4
-355 -11 -390 -37 -15 -11 -17 -18 -9 -32 15 -24 73 -51 125 -58 24 -4 53 -10
64 -14 22 -8 382 -6 427 3 125 24 216 68 297 143 148 137 171 324 60 489 -15
22 -44 56 -65 75 -111 101 -156 114 -442 125 -292 11 -424 107 -424 310 0 123
110 217 293 252 19 4 154 7 300 7 205 1 270 4 282 14 42 35 -32 70 -188 88
-52 6 -322 13 -328 8z"/>
<path d="M11645 8575 c-3 -8 -8 -23 -11 -32 -10 -32 -18 -291 -18 -568 1 -394
11 -485 62 -541 61 -68 169 -123 257 -131 85 -8 130 46 88 107 -26 38 -43 48
-100 60 -67 14 -99 43 -109 100 -17 93 -23 176 -29 432 -8 310 -11 301 138
312 77 6 82 8 107 48 37 61 -13 103 -132 110 -77 6 -164 43 -202 89 -27 32
-44 37 -51 14z"/>
<path d="M8579 8416 c-2 -2 -35 -6 -74 -10 -38 -4 -94 -14 -124 -24 -47 -15
-56 -22 -72 -57 -36 -84 -49 -279 -49 -760 0 -404 5 -516 29 -588 16 -46 38
-60 72 -44 44 22 52 58 56 246 2 97 5 176 6 177 1 1 49 -6 107 -17 163 -30
225 -28 346 12 103 33 218 117 261 191 28 47 61 148 72 223 11 70 7 259 -7
295 -5 14 -11 30 -12 35 -8 30 -13 45 -36 91 -46 95 -150 183 -245 210 -47 13
-319 30 -330 20z m171 -117 c119 -19 180 -45 227 -97 90 -100 111 -330 47
-509 -36 -100 -125 -190 -209 -209 -5 -2 -25 -7 -44 -13 -45 -14 -196 -6 -246
12 -90 34 -104 93 -100 427 2 140 6 273 9 295 9 54 30 83 69 94 44 13 169 13
247 0z"/>
<path d="M9853 8404 c-34 -7 -78 -20 -98 -30 -80 -38 -180 -168 -219 -288 -52
-155 -34 -416 36 -518 10 -14 18 -31 18 -36 0 -15 124 -127 162 -147 151 -77
340 -92 472 -36 25 11 46 18 46 15 0 -9 114 73 142 103 70 71 101 129 123 227
23 98 18 215 -13 339 -1 4 -2 8 -3 10 0 1 -2 10 -4 20 -5 29 -45 108 -76 153
-32 48 -146 164 -160 164 -5 0 -11 0 -14 0 -3 0 -20 7 -38 16 -42 22 -283 28
-374 8z m333 -130 c135 -66 205 -212 198 -416 -3 -106 -10 -141 -39 -206 -72
-159 -212 -229 -375 -188 -104 27 -177 78 -263 185 -9 12 -28 53 -40 90 -38
113 -26 239 35 353 53 100 156 182 261 209 58 15 163 2 223 -27z"/>
<path d="M10922 8404 c-38 -43 -47 -149 -47 -574 0 -359 5 -438 28 -493 21
-48 76 -48 96 1 18 42 22 85 27 262 12 487 12 478 39 540 16 34 28 44 186 147
57 37 91 78 87 104 -3 21 -9 24 -48 25 -25 0 -52 -3 -60 -7 -62 -32 -153 -69
-175 -71 -20 -2 -35 7 -62 40 -37 45 -50 50 -71 26z"/>
<path d="M6767 6705 c-5 -17 1 -1193 7 -1295 10 -183 27 -240 71 -240 38 0 57
38 71 145 3 22 7 317 8 656 2 339 6 621 9 626 7 11 437 10 502 -1 160 -28 221
-80 236 -201 10 -82 -51 -186 -166 -282 -52 -43 -118 -81 -151 -87 -11 -2 -35
-6 -55 -10 -19 -3 -45 -15 -57 -26 -27 -25 -20 -48 56 -180 70 -121 291 -450
322 -480 3 -3 25 -30 50 -59 88 -107 110 -119 157 -86 18 13 20 20 13 45 -5
17 -6 30 -3 30 7 0 -61 123 -106 190 -40 61 -284 404 -308 434 -20 24 -13 30
102 91 116 62 141 79 194 134 125 129 151 362 53 476 -36 43 -169 97 -267 109
-167 21 -732 29 -738 11z"/>
<path d="M10725 6710 c-25 -9 -44 -44 -50 -90 -25 -193 -25 -1007 0 -1301 9
-102 21 -149 39 -149 41 0 77 97 91 247 12 130 14 162 20 293 13 278 24 348
63 383 19 17 119 53 173 62 19 3 42 8 53 11 37 12 166 6 214 -10 88 -30 131
-93 125 -186 -5 -85 -34 -120 -145 -173 -149 -71 -188 -117 -161 -192 37 -105
218 -329 327 -404 69 -48 136 -38 136 19 0 24 -20 51 -101 136 -58 61 -110
126 -121 150 -22 50 -22 138 -1 155 7 7 13 16 13 21 0 13 30 51 92 116 118
124 143 207 93 309 -44 87 -122 149 -215 169 -39 9 -240 12 -240 4 0 -3 -15
-5 -33 -6 -17 -1 -63 -4 -102 -7 -38 -4 -94 -9 -122 -11 -29 -3 -53 -2 -54 2
0 4 -2 88 -3 187 -2 136 -7 189 -19 217 -18 42 -43 59 -72 48z"/>
<path d="M13196 6458 c-21 -52 -29 -147 -29 -363 0 -237 14 -596 27 -655 1 -8
6 -33 11 -55 8 -41 36 -98 58 -119 115 -111 363 -127 375 -24 5 41 -35 79 -88
85 -108 11 -153 40 -186 119 -12 29 -16 46 -31 124 -2 14 -7 157 -9 318 l-4
292 106 0 c59 0 125 5 146 12 69 20 89 82 38 119 -24 18 -38 21 -163 34 -93 9
-134 36 -200 129 -24 35 -32 33 -51 -16z"/>
<path d="M12325 6324 c-27 -8 -54 -16 -60 -17 -46 -13 -138 -71 -185 -117
-134 -130 -200 -285 -195 -462 11 -357 357 -610 732 -534 90 19 157 47 166 70
12 32 -74 56 -218 62 -213 8 -258 15 -333 51 -86 42 -205 185 -196 238 1 10
13 27 26 36 51 39 161 50 516 50 l262 1 1 36 c5 191 -8 288 -50 367 -51 98
-113 141 -272 193 -127 41 -137 42 -194 26z m236 -169 c37 -20 42 -25 95 -103
68 -101 63 -150 -18 -173 -50 -14 -410 -21 -478 -9 -100 18 -108 22 -115 59
-5 28 15 77 47 112 46 52 166 113 246 125 21 3 38 7 40 9 11 11 153 -5 183
-20z"/>
<path d="M10027 6304 c-1 -1 -27 -4 -57 -7 -49 -6 -85 -11 -130 -20 -41 -8
-150 -54 -186 -78 -82 -55 -155 -160 -178 -254 -5 -16 -10 -39 -13 -50 -12
-46 -10 -191 3 -248 14 -56 60 -175 74 -187 3 -3 17 -21 29 -40 59 -87 166
-171 276 -215 98 -40 239 -44 334 -10 35 13 75 35 89 48 l24 24 -22 21 c-25
23 -59 32 -150 38 -36 2 -90 6 -120 8 -103 7 -223 63 -279 129 -85 99 -132
273 -109 404 10 56 53 137 95 179 78 78 184 122 313 130 190 10 260 24 260 52
0 16 -20 55 -20 39 0 -4 -10 -1 -23 7 -21 14 -73 23 -170 30 -20 1 -38 2 -40
0z"/>
<path d="M8501 6279 c-94 -24 -150 -52 -204 -103 -67 -63 -113 -154 -132 -261
-13 -70 -13 -254 0 -321 6 -35 11 -64 9 -64 -2 0 9 -30 25 -66 74 -173 208
-254 429 -260 275 -6 432 86 501 293 44 130 46 342 5 463 -74 217 -237 336
-465 338 -62 0 -119 -6 -168 -19z m224 -108 c6 -3 16 -6 24 -8 21 -3 132 -61
156 -81 66 -55 96 -139 99 -277 7 -331 -112 -486 -365 -473 -133 7 -229 61
-274 156 -10 20 -21 44 -26 53 -20 42 -31 264 -17 349 23 137 110 244 226 276
45 13 156 16 177 5z"/>
</g>
</svg>
